<svg width="30" height="30" viewBox="0 0 30 30" fill="none" xmlns="http://www.w3.org/2000/svg">
<g clip-path="url(#clip0_1_60)">
<path d="M15 2.5C12.3478 2.5 9.8043 3.55357 7.92893 5.42893C6.05357 7.3043 5 9.84784 5 12.5C5 20 15 27.5 15 27.5C15 27.5 25 20 25 12.5C25 9.84784 23.9464 7.3043 22.0711 5.42893C20.1957 3.55357 17.6522 2.5 15 2.5ZM15 16.25C14.0054 16.25 13.0516 15.8549 12.3483 15.1517C11.6451 14.4484 11.25 13.4946 11.25 12.5C11.25 11.5054 11.6451 10.5516 12.3483 9.84835C13.0516 9.14509 14.0054 8.75 15 8.75C15.9946 8.75 16.9484 9.14509 17.6517 9.84835C18.3549 10.5516 18.75 11.5054 18.75 12.5C18.75 13.4946 18.3549 14.4484 17.6517 15.1517C16.9484 15.8549 15.9946 16.25 15 16.25Z" fill="white"/>
</g>
<defs>
<clipPath id="clip0_1_60">
<rect width="30" height="30" fill="white"/>
</clipPath>
</defs>
</svg>
