<svg width="19" height="19" viewBox="0 0 19 19" fill="none" xmlns="http://www.w3.org/2000/svg">
<g clip-path="url(#clip0_1_87)">
<path d="M15.0417 8.70831H3.95833C3.08388 8.70831 2.375 9.4172 2.375 10.2916V15.8333C2.375 16.7078 3.08388 17.4166 3.95833 17.4166H15.0417C15.9161 17.4166 16.625 16.7078 16.625 15.8333V10.2916C16.625 9.4172 15.9161 8.70831 15.0417 8.70831Z" stroke="#8A94A3" stroke-width="1.58333" stroke-linecap="round" stroke-linejoin="round"/>
<path d="M5.54169 8.70831V5.54165C5.54169 4.49183 5.95872 3.48501 6.70106 2.74268C7.44339 2.00035 8.45021 1.58331 9.50002 1.58331C10.5498 1.58331 11.5567 2.00035 12.299 2.74268C13.0413 3.48501 13.4584 4.49183 13.4584 5.54165V8.70831" stroke="#8A94A3" stroke-width="1.58333" stroke-linecap="round" stroke-linejoin="round"/>
</g>
<defs>
<clipPath id="clip0_1_87">
<rect width="19" height="19" fill="white"/>
</clipPath>
</defs>
</svg>
